<mxfile host="app.diagrams.net" modified="2021-05-30T20:24:27.797Z" agent="5.0 (Windows NT 10.0; Win64; x64) AppleWebKit/537.36 (KHTML, like Gecko) Chrome/90.0.4430.212 Safari/537.36" etag="6KKCQiqGqrxNvI5dsMY2" version="14.7.2" type="github">
  <diagram id="SSJaBWGN5REx6LANdPpt" name="Page-1">
    <mxGraphModel dx="1038" dy="548" grid="1" gridSize="10" guides="1" tooltips="1" connect="1" arrows="1" fold="1" page="1" pageScale="1" pageWidth="1169" pageHeight="827" math="0" shadow="0">
      <root>
        <mxCell id="0" />
        <mxCell id="1" parent="0" />
        <mxCell id="GkJH8r2QWdnZG4I43V4e-1" value="Client" style="rounded=1;whiteSpace=wrap;html=1;" parent="1" vertex="1">
          <mxGeometry x="170" y="200" width="120" height="60" as="geometry" />
        </mxCell>
        <mxCell id="GkJH8r2QWdnZG4I43V4e-2" value="View" style="rounded=1;whiteSpace=wrap;html=1;" parent="1" vertex="1">
          <mxGeometry x="320" y="200" width="120" height="60" as="geometry" />
        </mxCell>
        <mxCell id="GkJH8r2QWdnZG4I43V4e-3" value="Controller" style="rounded=1;whiteSpace=wrap;html=1;" parent="1" vertex="1">
          <mxGeometry x="470" y="200" width="120" height="60" as="geometry" />
        </mxCell>
        <mxCell id="GkJH8r2QWdnZG4I43V4e-4" value="Model" style="rounded=1;whiteSpace=wrap;html=1;" parent="1" vertex="1">
          <mxGeometry x="620" y="200" width="120" height="60" as="geometry" />
        </mxCell>
        <mxCell id="GkJH8r2QWdnZG4I43V4e-5" value="CPP Server" style="rounded=1;whiteSpace=wrap;html=1;" parent="1" vertex="1">
          <mxGeometry x="770" y="200" width="120" height="60" as="geometry" />
        </mxCell>
        <mxCell id="GkJH8r2QWdnZG4I43V4e-6" value="" style="endArrow=classic;html=1;" parent="1" edge="1">
          <mxGeometry relative="1" as="geometry">
            <mxPoint x="230" y="300" as="sourcePoint" />
            <mxPoint x="530" y="300" as="targetPoint" />
          </mxGeometry>
        </mxCell>
        <mxCell id="GkJH8r2QWdnZG4I43V4e-7" value="HTTP request" style="edgeLabel;resizable=0;html=1;align=center;verticalAlign=middle;" parent="GkJH8r2QWdnZG4I43V4e-6" connectable="0" vertex="1">
          <mxGeometry relative="1" as="geometry">
            <mxPoint x="-54" as="offset" />
          </mxGeometry>
        </mxCell>
        <mxCell id="GkJH8r2QWdnZG4I43V4e-8" value="" style="endArrow=none;html=1;entryX=0.5;entryY=1;entryDx=0;entryDy=0;" parent="1" target="GkJH8r2QWdnZG4I43V4e-1" edge="1">
          <mxGeometry width="50" height="50" relative="1" as="geometry">
            <mxPoint x="230" y="570" as="sourcePoint" />
            <mxPoint x="240" y="290" as="targetPoint" />
          </mxGeometry>
        </mxCell>
        <mxCell id="GkJH8r2QWdnZG4I43V4e-9" value="" style="endArrow=none;html=1;entryX=0.5;entryY=1;entryDx=0;entryDy=0;" parent="1" edge="1">
          <mxGeometry width="50" height="50" relative="1" as="geometry">
            <mxPoint x="829.5" y="569" as="sourcePoint" />
            <mxPoint x="829.5" y="259" as="targetPoint" />
          </mxGeometry>
        </mxCell>
        <mxCell id="GkJH8r2QWdnZG4I43V4e-10" value="" style="endArrow=none;html=1;entryX=0.5;entryY=1;entryDx=0;entryDy=0;" parent="1" edge="1">
          <mxGeometry width="50" height="50" relative="1" as="geometry">
            <mxPoint x="679.5" y="569" as="sourcePoint" />
            <mxPoint x="679.5" y="259" as="targetPoint" />
          </mxGeometry>
        </mxCell>
        <mxCell id="GkJH8r2QWdnZG4I43V4e-11" value="" style="endArrow=none;html=1;entryX=0.5;entryY=1;entryDx=0;entryDy=0;" parent="1" edge="1">
          <mxGeometry width="50" height="50" relative="1" as="geometry">
            <mxPoint x="529.5" y="569" as="sourcePoint" />
            <mxPoint x="529.5" y="259" as="targetPoint" />
          </mxGeometry>
        </mxCell>
        <mxCell id="GkJH8r2QWdnZG4I43V4e-12" value="" style="endArrow=none;html=1;entryX=0.5;entryY=1;entryDx=0;entryDy=0;" parent="1" edge="1">
          <mxGeometry width="50" height="50" relative="1" as="geometry">
            <mxPoint x="379.5" y="569" as="sourcePoint" />
            <mxPoint x="379.5" y="259" as="targetPoint" />
          </mxGeometry>
        </mxCell>
        <mxCell id="GkJH8r2QWdnZG4I43V4e-14" value="" style="endArrow=classic;html=1;" parent="1" edge="1">
          <mxGeometry relative="1" as="geometry">
            <mxPoint x="530" y="330" as="sourcePoint" />
            <mxPoint x="680" y="330" as="targetPoint" />
          </mxGeometry>
        </mxCell>
        <mxCell id="GkJH8r2QWdnZG4I43V4e-15" value="Request results" style="edgeLabel;resizable=0;html=1;align=center;verticalAlign=middle;" parent="GkJH8r2QWdnZG4I43V4e-14" connectable="0" vertex="1">
          <mxGeometry relative="1" as="geometry">
            <mxPoint x="-24" as="offset" />
          </mxGeometry>
        </mxCell>
        <mxCell id="GkJH8r2QWdnZG4I43V4e-16" value="" style="endArrow=classic;html=1;" parent="1" edge="1">
          <mxGeometry relative="1" as="geometry">
            <mxPoint x="680" y="360" as="sourcePoint" />
            <mxPoint x="830" y="360" as="targetPoint" />
          </mxGeometry>
        </mxCell>
        <mxCell id="GkJH8r2QWdnZG4I43V4e-17" value="Upload files" style="edgeLabel;resizable=0;html=1;align=center;verticalAlign=middle;" parent="GkJH8r2QWdnZG4I43V4e-16" connectable="0" vertex="1">
          <mxGeometry relative="1" as="geometry">
            <mxPoint x="-25" as="offset" />
          </mxGeometry>
        </mxCell>
        <mxCell id="GkJH8r2QWdnZG4I43V4e-18" value="" style="endArrow=classic;html=1;fillColor=#dae8fc;" parent="1" edge="1">
          <mxGeometry relative="1" as="geometry">
            <mxPoint x="830" y="400" as="sourcePoint" />
            <mxPoint x="680" y="400" as="targetPoint" />
          </mxGeometry>
        </mxCell>
        <mxCell id="GkJH8r2QWdnZG4I43V4e-19" value="Results" style="edgeLabel;resizable=0;html=1;align=center;verticalAlign=middle;" parent="GkJH8r2QWdnZG4I43V4e-18" connectable="0" vertex="1">
          <mxGeometry relative="1" as="geometry" />
        </mxCell>
        <mxCell id="GkJH8r2QWdnZG4I43V4e-24" value="" style="endArrow=classic;html=1;" parent="1" edge="1">
          <mxGeometry relative="1" as="geometry">
            <mxPoint x="380" y="440" as="sourcePoint" />
            <mxPoint x="230" y="440" as="targetPoint" />
          </mxGeometry>
        </mxCell>
        <mxCell id="GkJH8r2QWdnZG4I43V4e-25" value="HTTP response" style="edgeLabel;resizable=0;html=1;align=center;verticalAlign=middle;" parent="GkJH8r2QWdnZG4I43V4e-24" connectable="0" vertex="1">
          <mxGeometry relative="1" as="geometry" />
        </mxCell>
        <mxCell id="GkJH8r2QWdnZG4I43V4e-26" value="" style="endArrow=classic;html=1;fillColor=#dae8fc;" parent="1" edge="1">
          <mxGeometry relative="1" as="geometry">
            <mxPoint x="680" y="400" as="sourcePoint" />
            <mxPoint x="380" y="400" as="targetPoint" />
          </mxGeometry>
        </mxCell>
        <mxCell id="GkJH8r2QWdnZG4I43V4e-27" value="JSON" style="edgeLabel;resizable=0;html=1;align=center;verticalAlign=middle;" parent="GkJH8r2QWdnZG4I43V4e-26" connectable="0" vertex="1">
          <mxGeometry relative="1" as="geometry">
            <mxPoint x="-29" as="offset" />
          </mxGeometry>
        </mxCell>
        <mxCell id="cXiBO9hoSQV61Ktr4b4g-29" value="" style="endArrow=classic;html=1;" edge="1" parent="1">
          <mxGeometry relative="1" as="geometry">
            <mxPoint x="530" y="380" as="sourcePoint" />
            <mxPoint x="380" y="380" as="targetPoint" />
          </mxGeometry>
        </mxCell>
        <mxCell id="cXiBO9hoSQV61Ktr4b4g-30" value="HTML page" style="edgeLabel;resizable=0;html=1;align=center;verticalAlign=middle;" connectable="0" vertex="1" parent="cXiBO9hoSQV61Ktr4b4g-29">
          <mxGeometry relative="1" as="geometry" />
        </mxCell>
      </root>
    </mxGraphModel>
  </diagram>
</mxfile>
